<?xml version="1.0" encoding="utf-8"?>
<!-- Generator: Adobe Illustrator 27.2.0, SVG Export Plug-In . SVG Version: 6.00 Build 0)  -->
<svg version="1.1" id="Capa_1" xmlns="http://www.w3.org/2000/svg" xmlns:xlink="http://www.w3.org/1999/xlink" x="0px" y="0px"
	 viewBox="0 0 24 24" style="enable-background:new 0 0 24 24;" xml:space="preserve">
<style type="text/css">
	.st0{fill:#ECB870;}
	.st1{opacity:0.2;}
	.st2{fill:#434343;}
	.st3{fill:#FAF1DC;}
	.st4{fill:#FCF9F2;}
	.st5{fill:#A1002A;}
	.st6{fill:#44B3E6;}
	.st7{fill:#84D2F6;}
	.st8{fill:#ECDF70;stroke:#C39F21;stroke-width:0.5;}
</style>
<g id="Layer_1" transform="translate(-12.5 -3.5)">
	<g id="Grupo_683" transform="translate(12.5 4)">
		<path id="Trazado_31" class="st0" d="M21.37,17.01c0-0.04,0-0.07,0-0.11c0-0.04,0-0.07,0-0.11v-6.03H2.61v6.56h0.03
			c0.34,3.12,4.4,5.58,9.35,5.58s9.01-2.47,9.35-5.58h0.02L21.37,17.01L21.37,17.01z"/>
		<g id="Grupo_669" transform="translate(0.453 11.988)" class="st1">
			<path id="Trazado_32" class="st2" d="M20.54-0.84v5.66c0,0.02,0,0.04,0,0.06s0,0.03,0,0.05c0,0.02,0,0.03,0,0.05
				c0,0.02,0,0.04,0,0.06v0.2c-0.01,0.03-0.02,0.06-0.02,0.09c-0.32,2.94-4.26,5.24-8.98,5.24S2.89,8.24,2.57,5.3
				c0-0.04-0.01-0.07-0.03-0.11v-6.03H20.54 M20.92-1.22H2.16v6.56h0.03c0.34,3.12,4.4,5.58,9.35,5.58s9.01-2.47,9.35-5.58h0.02
				V5.02c0-0.04,0-0.07,0-0.11s0-0.07,0-0.11L20.92-1.22L20.92-1.22z"/>
		</g>
		<path id="Trazado_33" class="st3" d="M21.78,10.17H2.21v4.25c0,0,0.55,2.4,2.1,2.08c2-0.42,1.76,2.22,4.17,2.56
			c2.8,0.4,2.55-1.52,5.42-0.27c2.98,1.3,3.61-2.12,5.42-1.73c2.82,0.6,2.46-2.64,2.46-2.64L21.78,10.17L21.78,10.17z"/>
		<ellipse id="Elipse_24" class="st4" cx="11.99" cy="10.41" rx="9.78" ry="5.99"/>
		<g id="Grupo_670" transform="translate(0 4.863)" class="st1">
			<path id="Trazado_34" class="st2" d="M11.99-0.06c2.3-0.05,4.58,0.51,6.6,1.62c1.71,1.01,2.71,2.35,2.8,3.77
				c0,0.02,0,0.04,0.01,0.06v4.16c0,0.01,0,0.03,0,0.04c0.08,0.67-0.08,1.34-0.46,1.9c-0.25,0.27-0.61,0.41-0.98,0.39
				c-0.19,0-0.38-0.02-0.57-0.06c-0.12-0.02-0.24-0.04-0.36-0.04c-0.73,0.09-1.4,0.45-1.87,1.01c-0.5,0.6-1.22,0.97-1.99,1.05
				c-0.39-0.01-0.77-0.1-1.12-0.27c-0.57-0.28-1.19-0.43-1.83-0.46c-0.5,0.01-0.98,0.14-1.42,0.37c-0.49,0.25-1.03,0.39-1.59,0.39
				c-0.23,0-0.46-0.02-0.68-0.05c-0.83-0.15-1.54-0.66-1.96-1.38c-0.37-0.7-1.07-1.17-1.86-1.23c-0.16,0-0.32,0.02-0.48,0.05
				c-0.07,0.01-0.13,0.02-0.2,0.02c-0.91,0-1.37-1.52-1.43-1.78V5.4c0-0.02,0.01-0.04,0.01-0.06c0.09-1.42,1.08-2.76,2.8-3.77
				C7.42,0.45,9.69-0.11,11.99-0.06 M11.99-0.44c-5.27,0-9.57,2.56-9.77,5.75H2.21v4.25c0,0,0.49,2.11,1.81,2.11
				c0.09,0,0.19-0.01,0.28-0.03c0.13-0.03,0.27-0.04,0.41-0.05c1.57,0,1.53,2.29,3.76,2.61c0.24,0.04,0.49,0.05,0.74,0.06
				c1.47,0,1.91-0.76,3.01-0.76c0.58,0.03,1.15,0.17,1.68,0.43c0.4,0.19,0.83,0.29,1.27,0.3c1.82,0,2.53-2.06,3.87-2.06
				c0.1,0,0.19,0.01,0.28,0.03c0.21,0.05,0.43,0.07,0.65,0.07c2.11,0,1.82-2.71,1.82-2.71V5.31h-0.01
				C21.56,2.11,17.27-0.44,11.99-0.44L11.99-0.44z"/>
		</g>
		<g id="Grupo_671" transform="translate(12.336 5.613)">
			<path id="Trazado_35" class="st5" d="M3.76,0.93c0,0.8-0.65,1.02-1.45,1.02S0.85,1.73,0.85,0.93c0-0.8,0.65-1.45,1.46-1.45
				C3.11-0.52,3.76,0.13,3.76,0.93z"/>
		</g>
		<g id="Grupo_672" transform="translate(6.397 5.613)">
			<path id="Trazado_36" class="st5" d="M4.41,0.93c0,0.8-0.65,1.02-1.45,1.02S1.51,1.73,1.51,0.93c0-0.8,0.65-1.45,1.45-1.45
				C3.76-0.52,4.41,0.13,4.41,0.93z"/>
		</g>
		<g id="Grupo_674" transform="translate(9.312 0)">
			<rect id="Rectángulo_37" x="1.48" y="5.05" class="st6" width="2.32" height="4.43"/>
			<ellipse id="Elipse_25" class="st7" cx="2.65" cy="5.15" rx="1.17" ry="0.72"/>
			<ellipse id="Elipse_26" class="st6" cx="2.65" cy="9.37" rx="1.17" ry="0.72"/>
			<g id="Grupo_673" transform="translate(0.325 4.874)" class="st1">
				<path id="Trazado_37" class="st2" d="M2.32-0.25c0.54,0,0.92,0.24,0.97,0.47c0,0,0,0.01,0,0.01c0,0,0,0.01,0,0.01
					c0,0.01,0,0.02,0.01,0.03L3.29,0.31c0,0.01,0,0.02,0,0.03v4.1c0,0.01,0,0.02,0,0.03c0,0.01,0,0.02,0.01,0.03L3.29,4.53
					c0,0.01,0,0.01,0,0.02c0,0,0,0.01,0,0.01C3.23,4.79,2.85,5.02,2.32,5.02S1.41,4.79,1.35,4.56c0,0,0-0.01,0-0.01
					c0-0.01,0-0.01,0-0.02c0-0.01,0-0.02-0.01-0.03l0.01-0.03c0-0.01,0-0.02,0-0.03v-4.1c0-0.01,0-0.02,0-0.03
					c0-0.01,0-0.02-0.01-0.03l0.01-0.03c0,0,0-0.01,0-0.01c0,0,0-0.01,0-0.01C1.41-0.01,1.78-0.25,2.32-0.25 M2.32-0.44
					c-0.59,0-1.08,0.27-1.16,0.62H1.16v0.04c0,0.02-0.01,0.04-0.01,0.06c0,0.02,0.01,0.04,0.01,0.06v4.1c0,0.02-0.01,0.04-0.01,0.06
					c0,0.02,0.01,0.04,0.01,0.06v0.05h0.01c0.09,0.34,0.57,0.6,1.15,0.6s1.07-0.26,1.15-0.6h0.01V4.55c0-0.02,0.01-0.04,0.01-0.06
					c0-0.02-0.01-0.04-0.01-0.06v-4.1c0-0.02,0.01-0.04,0.01-0.06c0-0.02-0.01-0.04-0.01-0.06V0.18H3.48
					C3.4-0.17,2.91-0.45,2.32-0.44L2.32-0.44z"/>
			</g>
			<path id="Trazado_38" class="st8" d="M4.19,3.24c0,1.4-0.86,1.95-1.5,1.95s-1.5-0.54-1.5-1.95s0.86-3.15,1.5-3.15
				S4.19,1.83,4.19,3.24z"/>
		</g>
		<g id="Grupo_675" transform="translate(5.818 12.672)">
			<path id="Trazado_39" class="st5" d="M4.48,0.15c0,0.8-0.65,1.02-1.45,1.02S1.57,0.96,1.57,0.15c0-0.8,0.65-1.45,1.45-1.45
				C3.83-1.3,4.48-0.65,4.48,0.15z"/>
		</g>
		<g id="Grupo_676" transform="translate(2.082 9.455)">
			<path id="Trazado_40" class="st5" d="M4.89,0.5c0,0.8-0.65,1.02-1.45,1.02S1.98,1.31,1.98,0.5c0-0.8,0.65-1.45,1.46-1.45
				C4.24-0.95,4.89-0.3,4.89,0.5z"/>
		</g>
		<g id="Grupo_677" transform="translate(16.99 9.694)">
			<path id="Trazado_41" class="st5" d="M3.25,0.48c0,0.8-0.65,1.02-1.45,1.02S0.34,1.29,0.34,0.48c0-0.8,0.65-1.46,1.45-1.46
				C2.6-0.98,3.25-0.32,3.25,0.48C3.25,0.48,3.25,0.48,3.25,0.48z"/>
		</g>
		<g id="Grupo_679" transform="translate(3.96 1.905)">
			<rect id="Rectángulo_38" x="2.07" y="4.84" class="st6" width="2.32" height="4.43"/>
			<ellipse id="Elipse_27" class="st7" cx="3.24" cy="4.94" rx="1.17" ry="0.72"/>
			<ellipse id="Elipse_28" class="st6" cx="3.24" cy="9.16" rx="1.17" ry="0.72"/>
			<g id="Grupo_678" transform="translate(0.327 4.874)" class="st1">
				<path id="Trazado_42" class="st2" d="M2.91-0.46c0.54,0,0.92,0.24,0.97,0.47c0,0,0,0.01,0,0.01c0,0,0,0.01,0,0.01
					c0,0.01,0,0.02,0.01,0.03L3.88,0.1c0,0.01,0,0.02,0,0.03v4.1c0,0.01,0,0.02,0,0.03c0,0.01,0,0.02,0.01,0.03L3.88,4.32
					c0,0.01,0,0.01,0,0.02c0,0,0,0.01,0,0.01C3.82,4.58,3.44,4.82,2.91,4.82S2,4.58,1.94,4.35c0,0,0-0.01,0-0.01
					c0-0.01,0-0.01,0-0.02c0-0.01,0-0.02-0.01-0.03l0.01-0.03c0-0.01,0-0.02,0-0.03V0.12c0-0.01,0-0.02,0-0.03
					c0-0.01,0-0.02-0.01-0.03l0.01-0.03c0,0,0-0.01,0-0.01s0-0.01,0-0.01C1.99-0.22,2.37-0.46,2.91-0.46 M2.91-0.65
					c-0.59,0-1.08,0.27-1.16,0.62H1.75v0.04c0,0.02-0.01,0.04-0.01,0.06c0,0.02,0.01,0.04,0.01,0.06v4.1c0,0.02-0.01,0.04-0.01,0.06
					s0.01,0.04,0.01,0.06V4.4h0.01c0.09,0.34,0.57,0.6,1.15,0.6s1.07-0.26,1.15-0.6h0.01V4.35c0-0.02,0.01-0.04,0.01-0.06
					c0-0.02-0.01-0.04-0.01-0.06V0.12c0-0.02,0.01-0.04,0.01-0.06c0-0.02-0.01-0.04-0.01-0.06v-0.04H4.06
					C3.98-0.38,3.5-0.66,2.91-0.65L2.91-0.65z"/>
			</g>
			<path id="Trazado_43" class="st8" d="M4.78,3.03c0,1.4-0.86,1.95-1.5,1.95s-1.5-0.54-1.5-1.95s0.86-3.15,1.5-3.15
				S4.78,1.62,4.78,3.03z"/>
		</g>
		<g id="Grupo_681" transform="translate(14.692 1.905)">
			<rect id="Rectángulo_39" x="0.89" y="4.84" class="st6" width="2.32" height="4.43"/>
			<ellipse id="Elipse_29" class="st7" cx="2.06" cy="4.94" rx="1.17" ry="0.72"/>
			<ellipse id="Elipse_30" class="st6" cx="2.06" cy="9.16" rx="1.17" ry="0.72"/>
			<g id="Grupo_680" transform="translate(0.327 4.874)" class="st1">
				<path id="Trazado_44" class="st2" d="M1.73-0.46c0.54,0,0.92,0.24,0.97,0.47c0,0,0,0.01,0,0.01c0,0,0,0.01,0,0.01
					c0,0.01,0,0.02,0.01,0.03L2.7,0.1c0,0.01,0,0.02,0,0.03v4.1c0,0.01,0,0.02,0,0.03c0,0.01,0,0.02,0.01,0.03L2.7,4.32
					c0,0.01,0,0.01,0,0.02c0,0,0,0.01,0,0.01C2.64,4.58,2.26,4.82,1.73,4.82S0.82,4.58,0.76,4.35c0,0,0-0.01,0-0.01
					c0-0.01,0-0.01,0-0.02c0-0.01,0-0.02-0.01-0.03l0.01-0.03c0-0.01,0-0.02,0-0.03V0.12c0-0.01,0-0.02,0-0.03
					c0-0.01,0-0.02-0.01-0.03l0.01-0.03c0,0,0-0.01,0-0.01s0-0.01,0-0.01C0.81-0.22,1.19-0.46,1.73-0.46 M1.73-0.65
					c-0.59,0-1.08,0.27-1.16,0.62H0.57v0.04c0,0.02-0.01,0.04-0.01,0.06c0,0.02,0.01,0.04,0.01,0.06v4.1c0,0.02-0.01,0.04-0.01,0.06
					s0.01,0.04,0.01,0.06V4.4h0.01c0.09,0.34,0.57,0.6,1.15,0.6S2.8,4.74,2.88,4.4h0.01V4.35c0-0.02,0.01-0.04,0.01-0.06
					c0-0.02-0.01-0.04-0.01-0.06V0.12c0-0.02,0.01-0.04,0.01-0.06C2.9,0.04,2.9,0.02,2.89,0v-0.04H2.89
					C2.81-0.38,2.32-0.66,1.73-0.65L1.73-0.65z"/>
			</g>
			<path id="Trazado_45" class="st8" d="M3.6,3.03c0,1.4-0.86,1.95-1.5,1.95S0.6,4.43,0.6,3.03s0.86-3.15,1.5-3.15
				S3.6,1.62,3.6,3.03z"/>
		</g>
		<g id="Grupo_682" transform="translate(13.137 12.578)">
			<path id="Trazado_46" class="st5" d="M3.67,0.17c0,0.8-0.65,1.02-1.45,1.02S0.77,0.97,0.77,0.17c0-0.8,0.65-1.45,1.46-1.45
				C3.02-1.29,3.67-0.64,3.67,0.17z"/>
		</g>
	</g>
</g>
</svg>
