<?xml version="1.0" standalone="no"?>
<!DOCTYPE svg PUBLIC "-//W3C//DTD SVG 20010904//EN"
 "http://www.w3.org/TR/2001/REC-SVG-20010904/DTD/svg10.dtd">
<svg version="1.0" xmlns="http://www.w3.org/2000/svg"
 width="512.000000pt" height="512.000000pt" viewBox="0 0 512.000000 512.000000"
 preserveAspectRatio="xMidYMid meet">

<g transform="translate(0.000000,512.000000) scale(0.100000,-0.100000)" stroke="none">
<path d="M414 4786 c-38 -17 -82 -72 -90 -114 -4 -17 -3 -48 0 -69 7 -34 219
-250 2109 -2141 1206 -1207 2118 -2112 2139 -2123 47 -24 89 -24 138 1 68 34
99 100 85 177 -6 34 -110 142 -972 1005 l-966 966 278 484 c153 266 285 493
293 505 14 22 5 28 -384 285 -219 145 -400 263 -403 262 -7 -1 -12 -10 -268
-454 -113 -195 -209 -359 -214 -365 -6 -6 -305 286 -802 782 -442 443 -804
797 -820 802 -38 15 -85 13 -123 -3z"/>
<path d="M3253 4786 c-84 -21 -174 -71 -230 -128 -33 -33 -84 -109 -138 -202
-47 -82 -84 -150 -83 -151 30 -23 800 -527 802 -524 26 35 195 346 208 385 58
173 14 361 -116 489 -125 124 -282 170 -443 131z"/>
<path d="M1813 2598 c-6 -7 -117 -199 -248 -427 l-238 -414 -19 -281 c-10
-155 -19 -347 -20 -428 -3 -160 1 -174 66 -222 27 -21 38 -21 744 -24 l716 -2
-121 -123 c-130 -130 -143 -155 -129 -232 9 -47 59 -102 104 -115 25 -8 208
-10 553 -8 l516 3 37 29 c71 54 85 151 33 220 -49 64 -61 66 -398 66 l-304 0
117 117 c119 120 138 149 138 206 0 40 -36 103 -73 131 -28 21 -38 21 -695 26
l-666 5 112 73 c73 48 121 87 136 110 35 54 324 557 338 588 11 24 1 36 -333
370 -189 189 -347 344 -350 344 -4 0 -11 -6 -16 -12z"/>
</g>
</svg>
